# xmcd CD database file generated by Grip 3.0.7
# 
# Track frame offsets:
#       150
#       13582
#       27352
#       40496
#       55405
#       68692
#       83259
#       97384
#       110749
#       123470
#       137247
#       149179
#       161793
#       173809
#       186137
#       195213
#       204602
#       217620
#       229977
#       242640
#       254764
#       268080
#       279814
#       292240
#       304008
#       317276
# 
# Disc length: 4372 seconds
# 
# Revision: 1
# Processed by: cddbd v1.5.2PL0 Copyright (c) Steve Scherf et al.
# Submitted via: Grip 3.0.7
# 
DISCID=8911121a
DTITLE=Lonnie Johnson - The Original Guitar Wizard: Tomorrow Night  [CD4]
DYEAR=2004
DGENRE=Blues
TTITLE0=That's Love
TTITLE1=Lazy Woman Blues
TTITLE2=In Love Again
TTITLE3=He's A Jelly-Roll Baker
TTITLE4=When You Feel Low Down
TTITLE5=The Victim Of Love
TTITLE6=Watch Shorty
TTITLE7=Keep What You Got
TTITLE8=Love Is The Answer
TTITLE9=Tomorrow Night
TTITLE10=What A Real Woman
TTITLE11=Falling Rain Blues
TTITLE12=Working Man's Blues
TTITLE13=Playing Around
TTITLE14=Trouble Ain't Nothing But The Blues
TTITLE15=Blues Stay Away From Me
TTITLE16=Little Rockin' Chair
TTITLE17=Nothing But Trouble
TTITLE18=Why Should I Cry
TTITLE19=It Was All In Vain
TTITLE20=You Only Want Me When You're Lonely
TTITLE21=Me And My Crazy Self
TTITLE22=I'm Guilty
TTITLE23=Just Another Day
TTITLE24=You Can't Buy Love
TTITLE25=Can't Sleep Anymore
EXTD=YEAR: 2004 ID3G: 0
EXTT0=
EXTT1=
EXTT2=
EXTT3=
EXTT4=
EXTT5=
EXTT6=
EXTT7=
EXTT8=
EXTT9=
EXTT10=
EXTT11=
EXTT12=
EXTT13=
EXTT14=
EXTT15=
EXTT16=
EXTT17=
EXTT18=
EXTT19=
EXTT20=
EXTT21=
EXTT22=
EXTT23=
EXTT24=
EXTT25=
PLAYORDER=
